<?xml version="1.0" encoding="utf-8"?>
<!-- Generator: Adobe Illustrator 16.0.0, SVG Export Plug-In . SVG Version: 6.00 Build 0)  -->
<!DOCTYPE svg PUBLIC "-//W3C//DTD SVG 1.1//EN" "http://www.w3.org/Graphics/SVG/1.1/DTD/svg11.dtd">
<svg version="1.1" id="All_glyphs" xmlns="http://www.w3.org/2000/svg" xmlns:xlink="http://www.w3.org/1999/xlink" x="0px" y="0px"
	 width="179.352px" height="22.621px" viewBox="0 0 179.352 22.621" enable-background="new 0 0 179.352 22.621"
	 xml:space="preserve">
<g display="none" opacity="0.03">
	<path display="inline" fill="#231F20" d="M141.135,364.812c0-0.904,0.791-1.695,1.695-1.695h2.26l37.968,40.341h0.112V365.83
		c0-0.904,0.679-1.695,1.695-1.695h8.362c0.903,0,1.694,0.791,1.694,1.695v61.245c0,0.903-0.791,1.694-1.694,1.694h-2.147
		L153,386.96h-0.112v39.211c0,0.903-0.679,1.694-1.695,1.694h-8.249c-0.904,0-1.695-0.791-1.695-1.694v-61.358H141.135
		L141.135,364.812z"/>
	<path display="inline" fill="#231F20" d="M239.783,363.23c18.193,0,32.771,14.689,32.771,32.883
		c0,18.191-14.577,32.655-32.771,32.655c-18.192,0-32.656-14.464-32.656-32.655C207.013,377.92,221.477,363.23,239.783,363.23z
		 M239.783,416.904c11.526,0,20.905-9.379,20.905-20.904s-9.492-21.018-20.905-21.018c-11.526,0-20.905,9.604-20.905,21.018
		S228.257,416.904,239.783,416.904z"/>
	<path display="inline" fill="#231F20" d="M292.44,375.096h-13.899c-1.017,0-1.694-0.791-1.694-1.695v-7.459
		c0-0.903,0.678-1.694,1.694-1.694h39.775c1.018,0,1.694,0.791,1.694,1.694v7.459c0,0.904-0.678,1.695-1.694,1.695h-13.898v51.075
		c0,0.903-0.791,1.694-1.694,1.694h-8.476c-0.904,0-1.695-0.791-1.695-1.694v-51.075H292.44z"/>
	<path display="inline" fill="#231F20" d="M329.504,365.83c0-0.904,0.678-1.695,1.694-1.695h37.062c1.019,0,1.695,0.791,1.695,1.695
		v7.458c0,0.903-0.678,1.694-1.695,1.694h-27.006v14.916h22.601c0.902,0,1.693,0.791,1.693,1.695v7.571
		c0,1.017-0.791,1.695-1.693,1.695h-22.487v15.933h27.007c1.018,0,1.695,0.791,1.695,1.694v7.458c0,0.903-0.679,1.694-1.695,1.694
		h-37.063c-1.017,0-1.693-0.791-1.693-1.694V365.83H329.504z"/>
	<path display="inline" fill="#231F20" d="M383.065,364.812c0-0.904,0.791-1.695,1.693-1.695h2.26l37.854,40.228h0.113V365.83
		c0-0.904,0.678-1.695,1.694-1.695h8.361c0.904,0,1.695,0.791,1.695,1.695v61.245c0,0.903-0.791,1.694-1.695,1.694h-2.146
		l-38.081-41.81h-0.112v39.211c0,0.903-0.679,1.694-1.695,1.694h-8.249c-0.902,0-1.693-0.791-1.693-1.694V364.812L383.065,364.812z"
		/>
	<path display="inline" fill="#231F20" d="M481.713,363.23c18.192,0,32.771,14.689,32.771,32.883
		c0,18.191-14.577,32.655-32.771,32.655c-18.192,0-32.656-14.464-32.656-32.655C448.943,377.92,463.519,363.23,481.713,363.23z
		 M481.713,416.904c11.525,0,20.904-9.379,20.904-20.904s-9.491-21.018-20.904-21.018c-11.525,0-20.905,9.604-20.905,21.018
		S470.187,416.904,481.713,416.904z"/>
	<path display="inline" fill="#231F20" d="M534.37,375.096h-13.898c-1.018,0-1.694-0.791-1.694-1.695v-7.459
		c0-0.903,0.678-1.694,1.694-1.694h39.775c1.017,0,1.694,0.791,1.694,1.694v7.459c0,0.904-0.679,1.695-1.694,1.695h-13.899v51.075
		c0,0.903-0.791,1.694-1.693,1.694h-8.477c-0.902,0-1.693-0.791-1.693-1.694v-51.075H534.37z"/>
	<path display="inline" fill="#231F20" d="M571.433,365.83c0-0.904,0.679-1.695,1.695-1.695h37.063c1.017,0,1.693,0.791,1.693,1.695
		v7.458c0,0.903-0.678,1.694-1.693,1.694h-27.008v14.916h22.486c0.904,0,1.695,0.791,1.695,1.695v7.571
		c0,1.017-0.791,1.695-1.695,1.695h-22.486v15.933h27.008c1.017,0,1.693,0.791,1.693,1.694v7.458c0,0.903-0.678,1.694-1.693,1.694
		h-37.063c-1.018,0-1.695-0.791-1.695-1.694V365.83z"/>
</g>
<g>
	<text transform="matrix(0.9431 0 0 1 43.1414 21.6152)" fill="#FFFFFF" font-family="'NexaBold'" font-size="21.6061">CLOUDNOTE</text>
	<path fill="#FFFFFF" d="M13.962,7.23c0.398-0.324,0.868-0.424,1.354-0.465c0.355,0.271,0.712,0.53,0.984,0.916
		c2.241,3.175,4.462,6.364,6.75,9.503c0.109,0.149,0.165,0.328,0.21,0.509c-0.226,0.399-0.335,0.886-0.756,1.141
		c-0.615,0.396-1.03-0.022-1.344-0.462c-2.319-3.271-4.726-6.473-6.89-9.863C14.033,8.135,13.723,7.747,13.962,7.23z"/>
	<path fill="#FFFFFF" d="M23.26,17.693c-0.736-0.064-0.953-0.75-1.314-1.256c-1.984-2.776-3.973-5.549-5.939-8.34
		c-0.284-0.402-0.462-0.886-0.69-1.332c0.267-0.106,0.532-0.213,0.797-0.319c0.354-0.01,0.707-0.021,1.062-0.03
		c0.343,0.125,0.761-0.036,1.047,0.306c-0.08,0.18-0.217,0.301-0.373,0.396c-0.454,0.601,0.106,0.924,0.354,1.277
		c1.678,2.406,3.354,4.813,5.088,7.176c0.228,0.31,0.335,0.65,0.464,0.995C23.756,17.023,23.548,17.378,23.26,17.693z"/>
	<path fill="#FFFFFF" d="M13.962,7.23c2.478,3.569,4.961,7.132,7.427,10.707c0.297,0.431,0.573,0.835,1.115,0.896
		c-0.01,0.087-0.018,0.176-0.025,0.263c-0.261,0.191-0.523,0.383-0.786,0.572c-0.714,0.223-1.058-0.34-1.383-0.807
		c-2.259-3.238-4.534-6.468-6.794-9.703c-0.301-0.43-0.709-0.879-0.315-1.494C13.453,7.52,13.709,7.375,13.962,7.23z"/>
	<path fill="#FFFFFF" d="M23.753,16.566c-1.93-1.675-3.042-4.051-4.617-6.028c-0.706-0.888-1.264-1.905-1.968-2.797
		c-0.786-0.992-0.228-1.032,0.548-0.997c0.183,0.134,0.449,0.169,0.573,0.34c2.034,2.788,4.45,5.295,5.744,8.636
		c0.023,0.095,0.048,0.189,0.071,0.286C23.986,16.191,23.869,16.379,23.753,16.566z"/>
	<path fill="#FFFFFF" d="M24.033,15.719c-1.65-2.312-3.308-4.62-4.952-6.938c-0.474-0.665-0.912-1.356-1.366-2.036
		c0.168-0.007,0.337-0.015,0.505-0.022c0.674-0.006,1.32,0.094,1.872,0.555c1.167,1.851,2.518,3.555,3.75,5.355
		c0.038,0.056,0.167,0.01,0.25-0.033C24.465,13.647,24.385,14.686,24.033,15.719z"/>
	<path fill="#FFFFFF" d="M24.093,12.598c-0.021,0.272-0.042,0.547-0.085,1.094c-1.448-2.072-2.761-3.954-4.075-5.836
		c-0.188-0.268-0.261-0.502,0.161-0.58c1.209,0.422,2.048,1.372,2.899,2.299C23.368,10.579,24.114,11.432,24.093,12.598z"/>
	<path fill="#FFFFFF" d="M2.087,12.724c1.469-1.778,3.227-2.778,5.529-2.316c0.156,0.588-0.25,0.84-0.611,1.082
		c-1.358,0.905-2.693,1.859-4.104,2.668c-0.438,0.252-1.175,0.84-1.131-0.458C1.776,13.338,1.856,13.003,2.087,12.724z"/>
	<path fill="#FFFFFF" d="M8.675,10.698c0.179,0.085,0.356,0.174,0.537,0.259c0.381,0.581-0.044,0.909-0.403,1.128
		c-2.291,1.387-4.452,3.001-6.77,4.339c-0.115,0.067-0.256,0.065-0.39,0.062c-0.134-0.028-0.249-0.098-0.344-0.202
		c-0.038-0.596-0.154-1.202,0.188-1.752c1.343,0.175,2.105-0.986,3.12-1.554C5.969,12.224,7.166,11.15,8.675,10.698z"/>
	<path fill="#FFFFFF" d="M8.675,10.698c-2.074,1.393-4.149,2.78-6.217,4.181c-0.483,0.325-0.817,0.314-0.964-0.349
		c0.004-0.31,0.034-0.607,0.275-0.831c0.071,0.5,0.36,0.471,0.663,0.271c1.749-1.155,3.619-2.107,5.184-3.562
		C7.968,10.504,8.321,10.602,8.675,10.698z"/>
	<path fill="#FFFFFF" d="M1.305,16.282c0.073,0.003,0.146,0.004,0.22,0.004c1.27-0.146,2.178-1.073,3.186-1.739
		c1.667-1.104,3.327-2.206,5.085-3.138c0.077,0.007,0.147,0.031,0.212,0.078c0.293,0.354,0.148,0.677-0.064,0.994
		c-2.378,1.598-4.77,3.173-7.203,4.68c-0.385,0.238-0.742,0.532-1.215,0.25C1.3,17.067,1.24,16.688,1.305,16.282z"/>
	<path fill="#FFFFFF" d="M1.525,17.411c2.348-1.505,4.696-3.002,7.036-4.515c0.375-0.24,0.735-0.496,1.184-0.549
		c0.288,0.313,0.236,0.626-0.005,0.937c-2.343,1.335-4.566,2.888-6.85,4.332c-0.414,0.264-0.795,0.604-1.324,0.345
		c-0.033-0.091-0.066-0.18-0.1-0.268C1.486,17.598,1.507,17.505,1.525,17.411z"/>
	<path fill="#FFFFFF" d="M9.483,13.195c0.261-0.224,0.266-0.533,0.264-0.848c0.088-0.286,0.174-0.573,0.262-0.86
		c0.246-0.381,0.491-0.76,0.735-1.142c0.808-0.26,1.079,0.446,1.436,0.934c1.964,2.688,3.859,5.435,5.74,8.187
		c0.386,0.564,0.903,1.014,1.2,1.646c-1.215,0.605-2.53,0.368-3.802,0.509c-3.067-0.012-6.136-0.021-9.204-0.031
		c-0.337-0.24-0.723-0.246-1.107-0.255c-0.449-0.282-0.898-0.565-1.349-0.85c-0.082-0.382,0.179-0.497,0.431-0.619
		c0.495-0.104,1.028,0.012,1.489-0.296c0.931-0.366,1.701-0.91,1.975-2.004c0.133-0.493,0.298-0.972,0.531-1.42
		c0.231-0.575,0.445-1.155,0.552-1.775c0.074-0.244,0.196-0.462,0.312-0.683C9.099,13.492,9.294,13.345,9.483,13.195z"/>
	<path fill="#FFFFFF" d="M19.118,21.112c-1.201-0.252-1.565-1.436-2.186-2.292c-1.867-2.586-3.657-5.235-5.492-7.85
		c-0.178-0.252-0.463-0.419-0.698-0.625c0.141-0.501,0.433-0.883,0.817-1.194c1.541,1.46,2.559,3.366,3.774,5.095
		c1.533,2.178,3.137,4.308,4.558,6.57C19.685,21.065,19.405,21.1,19.118,21.112z"/>
	<path fill="#FFFFFF" d="M13.199,7.663c1.588,2.847,3.565,5.397,5.434,8.027c0.97,1.362,1.729,2.922,3.06,3.978
		c-0.244,0.415-0.599,0.604-1.056,0.59c-1.062-0.529-1.543-1.644-2.147-2.573c-1.642-2.534-3.496-4.895-5.178-7.394
		c-0.419-0.619-1.266-1.192-0.662-2.198C12.833,7.95,13.015,7.808,13.199,7.663z"/>
	<path fill="#FFFFFF" d="M19.892,20.816c-1.067-0.289-1.366-1.376-1.931-2.16c-1.947-2.691-3.849-5.423-5.747-8.153
		c-0.28-0.403-0.61-0.808-0.654-1.352c0.095-0.278,0.284-0.462,0.533-0.58c2.88,3.915,5.783,7.812,8.343,11.978
		C20.257,20.64,20.074,20.728,19.892,20.816z"/>
	<path fill="#FFFFFF" d="M20.437,20.548c-2.022-2.274-3.596-4.92-5.388-7.385c-1.066-1.468-2.224-2.881-2.955-4.593
		c0.185-0.159,0.37-0.319,0.555-0.479c0.474,1.81,1.788,3.045,2.784,4.483c1.758,2.543,3.591,5.027,5.204,7.682
		C20.57,20.355,20.505,20.452,20.437,20.548z"/>
	<path fill="#FFFFFF" d="M9.796,11.409c-0.602,0.855-1.583,1.093-2.379,1.63c-1.652,1.113-3.324,2.198-5.006,3.266
		c-0.25,0.159-0.612,0.778-0.886-0.019c2.311-1.475,4.625-2.942,6.928-4.434c0.321-0.209,0.715-0.398,0.759-0.896
		C9.485,10.992,9.661,11.171,9.796,11.409z"/>
	<path fill="#FFFFFF" d="M8.964,14.315c-0.002,0.713-0.112,1.393-0.541,1.973c-1.809,1.091-3.406,2.537-5.291,3.496
		c-0.126-0.003-0.246-0.034-0.356-0.104c-0.25-0.192-0.5-0.388-0.752-0.581c0.025-0.09,0.03-0.181,0.016-0.274
		c0.051-0.46,0.325-0.732,0.678-0.967c1.709-1.141,3.455-2.217,5.151-3.376C8.206,14.255,8.553,14.038,8.964,14.315z"/>
	<path fill="#FFFFFF" d="M9.483,13.195c-0.085,0.187-0.171,0.374-0.256,0.563c-2.415,1.673-4.827,3.354-7.393,4.764
		c-0.089-0.189-0.18-0.376-0.268-0.562c2.328-1.496,4.655-2.993,6.984-4.481C8.835,13.295,9.077,12.935,9.483,13.195z"/>
	<path fill="#FFFFFF" d="M1.834,18.522c2.387-1.725,4.797-3.408,7.393-4.764c-0.088,0.187-0.175,0.372-0.263,0.557
		c-2.31,1.504-4.616,3.007-6.925,4.51C1.97,18.725,1.901,18.625,1.834,18.522z"/>
	<path fill="#FFFFFF" d="M2.775,19.681c0.115-0.007,0.23-0.018,0.347-0.026c0.506-0.136,0.985-0.217,1.061,0.562
		c-0.175,0.091-0.35,0.18-0.526,0.269C3.26,20.344,2.988,20.05,2.775,19.681z"/>
	<path fill="#FFFFFF" d="M4.182,20.217c-0.354-0.188-0.708-0.374-1.061-0.562c1.42-1.548,3.204-2.523,4.968-3.531
		c0.063-0.035,0.22,0.106,0.333,0.165c-0.172,0.471-0.343,0.939-0.517,1.408c-0.565,0.633-1.193,1.181-1.935,1.564
		c-0.316,0.163-0.509,0.336-0.191,0.686C5.301,20.39,4.72,20.165,4.182,20.217z"/>
	<path fill="#FFFFFF" d="M5.779,19.946c-0.344,0-0.688,0-1.03,0c0.911-1.056,1.906-1.863,3.157-2.25
		C7.631,18.908,6.945,19.681,5.779,19.946z"/>
</g>
</svg>
